<?xml version="1.0" encoding="iso-8859-1"?>
<!-- Generator: Adobe Illustrator 17.1.0, SVG Export Plug-In . SVG Version: 6.00 Build 0)  -->
<!DOCTYPE svg PUBLIC "-//W3C//DTD SVG 1.1//EN" "http://www.w3.org/Graphics/SVG/1.1/DTD/svg11.dtd">
<svg version="1.1" id="Capa_1" xmlns="http://www.w3.org/2000/svg" xmlns:xlink="http://www.w3.org/1999/xlink" x="0px" y="0px"
	 viewBox="0 0 378.015 378.015" style="enable-background:new 0 0 378.015 378.015;" xml:space="preserve">
<path d="M285.849,31.459c0.23-2.589,1.402-19.788-7.293-26.787C274.92,1.747,268.946,0,262.573,0
	c-9.274,0-17.415,3.668-22.334,10.064c-21.576,28.052-12.658,43.918-5.492,56.667c0.477,0.85,0.95,1.69,1.408,2.523
	c2.293,4.173,5.546,8.968,8.989,14.044c10.688,15.757,23.989,35.367,16.993,49.36c-1.308,2.616-2.677,3.999-3.959,3.999
	c-2.029,0-4.016-3.384-4.596-4.657c-1.031-3.535-19.668-65.65-54.889-65.65c-3.222,0-6.522,0.537-9.807,1.597
	c-0.396,0.127-1.554,0.501-1.675,1.461c-2.97,0.237-7.634,0.794-8.84,2.002c-0.752,0.752-0.793,1.479-0.695,1.956
	c0.001,0.005,0.002,0.011,0.003,0.016c-3.304,0.044-7.389,0.466-9.357,2.104c-0.323,0.27-1.991,0.285-3.332,0.297
	c-7.326,0.066-22.571,0.205-35.854,24.12c-5.902,10.626-13.566,22.771-20.978,34.516c-15.888,25.177-22.189,35.738-20.485,38.829
	c0.199,0.362,0.692,0.968,1.754,0.968c0.547,0,1.189-0.163,1.964-0.498c1.358-0.586,3.489-1.628,6.187-2.948
	c11.874-5.805,33.975-16.611,46.858-16.611c1.915,0,3.552,0.248,4.867,0.735c0.314,0.117,0.404,0.218,0.411,0.218c0,0,0,0,0,0
	c0.103,0.856-3.256,3.663-5.264,5.34c-4.567,3.815-9.743,8.14-8.647,12.071c0.768,2.757,4.288,4.527,11.077,5.571l5.602,0.865
	c5.186,0.803,9.632,1.49,13.372,2.023c-1.89,44.542-7.467,170.247-7.845,173.268c-0.111,0.889-1.022,2.671-1.986,4.593
	c-2.62,5.222-6.58,13.05-0.999,16.079c2.386,1.294,17.658,3.093,25.532,3.093c0.001,0,0.001,0,0.002,0
	c3.885,0,5.376-0.276,5.694-1.419c0.298-1.072-0.771-1.676-1.234-1.946c6.765,1.491,18.299,3.158,23.505,3.158h0
	c2.766,0,3.978-0.387,4.32-1.381c0.183-0.529,0.046-1.06-0.431-1.606c1.105-0.273,3.175-0.508,4.659-0.676
	c2.94-0.333,5.718-0.648,7.076-1.375c1.325-0.709,1.33-1.586,1.214-2.046c-0.903-3.603-20.345-4.894-20.538-4.894
	c-0.831,0-2.97-0.216-4.882-2.217c-2.069-2.165-3.055-5.647-2.854-10.069c0.445-9.822,3.927-89.005,4.128-93.588
	c0.505-1.04,2.49-5.211,2.758-6.999c0.32-2.14-0.503-5.953-1.436-7.875c-0.705-3.738,3.971-56.508,5.35-60.557
	c0.432-0.321,1.085-0.878,1.94-1.607c2.361-2.013,6.756-5.761,9.052-6.385c0.504-0.137,1.374-0.333,2.543-0.596
	c11.538-2.6,46.649-10.511,57.393-30.93c3.94-7.49,4.101-15.88,0.478-24.938c-5.921-14.803-13.868-27.612-20.88-38.913
	c-12.52-20.179-22.408-36.118-13.195-51.277l0.064-0.125c0.021-0.048,2.162-4.825,5.483-4.825c1.151,0,2.38,0.564,3.656,1.677
	c0.152,2.114,1.369,10.674,11.047,11.11c4.255,0.192,7.599,2.266,9.173,5.689c2.458,5.347,0.352,12.907-5.778,20.741
	c-2.197,2.807-5.821,7.894-5.409,10.418c0.097,0.594,0.394,1.07,0.859,1.377c0.526,0.347,1.162,0.523,1.891,0.523
	c6.757,0,22.375-16.188,23.677-19.491C291.462,52.964,290.642,40.812,285.849,31.459z M193.168,181.845
	c0.235,1.007,0.362,11.456-3.529,86.542c-2.153,41.546-4.556,83.613-4.786,85.448c-0.128,1.022-1.209,2.985-2.353,5.063
	c-1.278,2.321-2.698,4.912-3.47,7.342c-0.404-0.053-0.763-0.084-1.052-0.084c-0.83,0-2.966-0.216-4.878-2.218
	c-2.071-2.167-3.059-5.652-2.857-10.078c0.445-9.822,3.927-89.005,4.128-93.588c0.504-1.04,2.489-5.211,2.757-7
	c0.316-2.112-0.487-5.781-1.429-7.728c-0.438-2.779,1.596-40.737,3.406-63.46c0.732-0.1,1.256-0.281,1.625-0.558
	c0.829-0.621,6.44-1.824,12.516-2.875C192.897,179.351,192.64,180.442,193.168,181.845z"/>
<g>
</g>
<g>
</g>
<g>
</g>
<g>
</g>
<g>
</g>
<g>
</g>
<g>
</g>
<g>
</g>
<g>
</g>
<g>
</g>
<g>
</g>
<g>
</g>
<g>
</g>
<g>
</g>
<g>
</g>
</svg>
